# xmcd CD database file
#
# Track frame offsets:
#	150
#	12627
#	23827
#	40482
#	53998
#	66609
#	80864
#	96640
#	111078
#	124818
#	136438
#	150445
#	162576
#	175502
#	187301
#	217894
#	232466
#
# Disc length: 3391 seconds
#
# Revision: 1
# Processed by: cddbd v1.5.2PL0 Copyright (c) Steve Scherf et al.
# Submitted via: CDex 1.51
#
DISCID=070d3d11
DTITLE=Louis Armstrong - Roots Collection, Vol. 11 - Swinging With the Good Book
DYEAR=2010
DGENRE=Jazz
TTITLE0=When the Saints Go Marchin' in
TTITLE1=This Train
TTITLE2=Go Down Moses
TTITLE3=Rock My Soul
TTITLE4=Shadrack
TTITLE5=Swing Low, Swing Chariot
TTITLE6=Sometimes I Feel Like a Motherless Chile
TTITLE7=Down by the Riverside
TTITLE8=Nobody Knows the Trouble I've Seen
TTITLE9=Ezekiel Saw de Wheel
TTITLE10=On My Way
TTITLE11=Jonah and the Whale
TTITLE12=Didn't It Rain
TTITLE13=Bye and Bye
TTITLE14=New Orleans Function: Flee as a Bird - Oh, Didn't He Ramble - March - Parade and Stomp
TTITLE15=Nobody Knows the Trouble I've Seen
TTITLE16=When the Saints Go Marching in (Live)
EXTD=YEAR: 2010
EXTT0=
EXTT1=
EXTT2=
EXTT3=
EXTT4=
EXTT5=
EXTT6=
EXTT7=
EXTT8=
EXTT9=
EXTT10=
EXTT11=
EXTT12=
EXTT13=
EXTT14=
EXTT15=
EXTT16=
PLAYORDER=
